<svg width="67" height="66" viewBox="0 0 67 66" fill="none" xmlns="http://www.w3.org/2000/svg">
<g clip-path="url(#clip0_1737_1666)">
<path d="M35.1875 66C31.2198 66 27.3681 65.2686 23.7193 63.8203C21.8394 64.4258 20.0174 64.7842 18.2969 64.8908C17.9538 64.9102 17.6155 64.9199 17.2821 64.9199C14.2712 64.9199 11.6664 64.1013 9.53029 62.4835C7.15256 60.6816 5.57224 58.0564 4.83283 54.6852C4.17557 51.6821 4.2094 48.1946 4.94398 44.3197C5.00681 43.9855 5.07447 43.6464 5.15179 43.2977C4.91982 42.4742 4.71684 41.6363 4.55253 40.7935C4.19925 40.5349 3.90035 40.209 3.67296 39.8344L0.507496 34.7001C0.502664 34.6953 0.497831 34.6856 0.492999 34.6808C0.483333 34.6614 0.468834 34.642 0.459169 34.6226C-0.0579382 33.7169 -0.144929 32.6125 0.232028 31.5953C0.560656 30.7041 1.20825 29.934 2.05398 29.4351L3.43132 28.6213L10.8593 8.32629L10.3809 7.49802C9.86375 6.59225 9.78159 5.49273 10.1537 4.47072C10.4823 3.57948 11.1299 2.80934 11.9757 2.31044C12.6329 1.92294 13.3723 1.71951 14.1118 1.71951C14.3292 1.71951 14.5419 1.73888 14.7545 1.77279C15.7839 1.94232 16.6731 2.5284 17.2047 3.38089C17.2096 3.38573 17.7895 4.32541 17.7895 4.32541L24.2171 5.39102C27.7208 4.07354 31.4083 3.40511 35.1875 3.40511H35.2938C35.5838 3.25011 35.8689 3.1048 36.154 2.95949C39.6771 1.19639 43.0166 0.208278 46.0757 0.0290616C46.4189 0.00968692 46.762 0 47.0906 0C50.1014 0 52.7063 0.818582 54.8424 2.43637C57.2201 4.23822 58.8004 6.8635 59.5398 10.2347C59.9071 11.9009 60.0569 13.7318 59.9941 15.6887C60.4581 16.299 60.9075 16.9287 61.328 17.5729L61.6324 17.6407C61.6566 17.6455 61.6807 17.6504 61.7001 17.6552C61.7242 17.6601 61.7484 17.6649 61.7677 17.6697L62.6956 17.8732C62.7826 17.8926 62.8696 17.9168 62.9566 17.9458C63.0484 17.9555 63.1354 17.9652 63.2224 17.9846L64.1503 18.188C64.1745 18.1929 64.1986 18.1977 64.218 18.2026C64.2421 18.2074 64.2663 18.2122 64.2856 18.2171L65.2135 18.4205C65.777 18.5433 66.269 18.8851 66.5815 19.3708C66.8941 19.8566 67.0017 20.4467 66.8808 21.0119L66.325 23.5887L66.0447 24.8965C66.0399 24.9207 66.0351 24.945 66.0254 24.9692L65.9481 25.3325L65.9336 25.4003L65.8514 25.7732L65.8369 25.8362L65.7451 26.2576C65.7258 26.3448 65.7016 26.432 65.6726 26.5143L65.6533 26.6015L65.6243 26.7226C65.6195 26.7613 65.6098 26.8049 65.6001 26.8437L65.5131 27.2506C66.1085 29.6953 66.4087 32.203 66.4072 34.7195C66.4072 39.0788 65.5325 43.2831 63.812 47.2356C64.1116 48.461 64.2518 49.7155 64.2325 50.9846C64.1745 54.8983 62.6038 58.5698 59.8201 61.3113C57.0413 64.0528 53.3587 65.5641 49.4635 65.5641H49.2315C47.5449 65.5399 45.9066 65.2299 44.3456 64.6535C41.3745 65.5463 38.2893 65.9999 35.1875 66Z" fill="#E8E8E4"/>
<path d="M35.1874 63.8205C51.2339 63.8205 64.2421 50.7829 64.2421 34.7003C64.2421 18.6176 51.2339 5.58008 35.1874 5.58008C19.141 5.58008 6.13281 18.6176 6.13281 34.7003C6.13281 50.7829 19.141 63.8205 35.1874 63.8205Z" fill="#0E2D6D"/>
<path d="M56.4049 20.9444C56.4677 20.6441 56.5305 20.3487 56.5837 20.058C56.893 18.4209 57.067 16.8515 57.1056 15.3936C57.1491 13.7612 57.0138 12.2306 56.7142 10.855C56.1246 8.17648 54.9067 6.11791 53.0992 4.74715C51.4803 3.5217 49.4602 2.89687 47.0921 2.89687C46.8166 2.89687 46.5315 2.90655 46.2512 2.92109C43.6125 3.07608 40.6839 3.94795 37.5522 5.50277C37.1946 5.4737 36.8273 5.44949 36.4648 5.43496C36.7113 5.30418 36.9626 5.17824 37.2043 5.05231C40.4422 3.42967 43.4724 2.52875 46.2174 2.36406C46.5122 2.34469 46.807 2.33984 47.0969 2.33984C49.5858 2.33984 51.7171 2.99858 53.4327 4.30153C55.3513 5.75464 56.6368 7.91976 57.2554 10.7339C57.6276 12.4244 57.7484 14.3231 57.6179 16.3768C57.5406 17.5781 57.3763 18.852 57.1298 20.1549C57.0718 20.4697 57.0041 20.7991 56.9316 21.1333L56.4049 20.9444Z" fill="#E8E8E4"/>
<path d="M47.0972 2.50898C49.5474 2.50898 51.6449 3.15803 53.3315 4.43676C55.2163 5.86565 56.4825 7.99687 57.0914 10.7675C57.4587 12.4434 57.5795 14.3276 57.449 16.3668C57.3717 17.5631 57.2074 18.8273 56.9657 20.1254C56.9174 20.3773 56.8643 20.6389 56.8063 20.9053L56.6033 20.8278C56.6564 20.5759 56.7048 20.324 56.7531 20.0819C57.0624 18.435 57.2412 16.856 57.2799 15.3883C57.3234 13.7415 57.1881 12.2012 56.8836 10.811C56.2843 8.0889 55.0471 6.00127 53.2059 4.60629C51.5579 3.35662 49.5039 2.7221 47.0972 2.7221C46.8169 2.7221 46.5318 2.73179 46.2467 2.74632C43.5983 2.90132 40.66 3.76834 37.5235 5.32316L37.0982 5.2941C37.161 5.26503 37.2239 5.23113 37.2819 5.20207C40.5005 3.59396 43.5113 2.69304 46.2322 2.5332C46.5221 2.51867 46.8121 2.50898 47.0972 2.50898ZM47.0972 2.16992C46.8073 2.16992 46.5076 2.17961 46.208 2.19898C43.4436 2.36367 40.3845 3.27428 37.1272 4.90176C36.6971 5.11972 36.2621 5.34738 35.832 5.58472C36.4216 5.59925 37.0064 5.62831 37.5815 5.67675C40.7083 4.11708 43.6273 3.25006 46.2563 3.09022C46.5366 3.07569 46.8169 3.066 47.0876 3.066C49.417 3.066 51.3984 3.67631 52.9932 4.88238C54.7717 6.22893 55.9654 8.25359 56.5453 10.8934C56.8449 12.2642 56.9754 13.7657 56.9368 15.3883C56.8981 16.8414 56.7289 18.3914 56.4148 20.0237C56.352 20.3628 56.2795 20.7067 56.207 21.0506L57.0527 21.3606C57.1397 20.9682 57.2219 20.5759 57.2944 20.1884C57.5457 18.8661 57.71 17.597 57.7873 16.3861C57.9178 14.313 57.797 12.4046 57.42 10.6948C56.7918 7.84187 55.4869 5.64284 53.5345 4.16552C51.785 2.84319 49.6248 2.16992 47.0972 2.16992Z" fill="#335E6F"/>
<path d="M49.4701 63.3604C56.4284 63.3604 62.0692 57.7069 62.0692 50.7329C62.0692 43.759 56.4284 38.1055 49.4701 38.1055C42.5119 38.1055 36.8711 43.759 36.8711 50.7329C36.8711 57.7069 42.5119 63.3604 49.4701 63.3604Z" fill="#1FC3F3"/>
<mask id="mask0_1737_1666" style="mask-type:luminance" maskUnits="userSpaceOnUse" x="36" y="38" width="27" height="26">
<path d="M49.4721 63.3609C56.4303 63.3609 62.0711 57.7074 62.0711 50.7334C62.0711 43.7595 56.4303 38.106 49.4721 38.106C42.5138 38.106 36.873 43.7595 36.873 50.7334C36.873 57.7074 42.5138 63.3609 49.4721 63.3609Z" fill="white"/>
</mask>
<g mask="url(#mask0_1737_1666)">
<path d="M38.1172 58.5896C38.702 58.3475 38.7261 58.2748 38.9484 57.9406C39.1707 57.6064 39.654 57.4417 39.9005 57.1801C40.147 56.9186 40.2243 56.749 40.2823 56.41C40.3403 56.0709 40.3113 55.9741 40.6109 55.4897C40.9105 55.0102 40.8622 54.9811 41.2295 54.6856C41.5968 54.3902 41.1667 54.1867 41.7708 54.2691C42.3749 54.3514 42.8823 54.5791 43.6604 54.4192C44.4385 54.2594 44.4916 53.993 45.1489 53.93C45.8061 53.867 46.0236 53.8477 46.5552 53.8525C47.0868 53.8622 47.5314 53.5764 47.8891 53.7508C48.2467 53.9252 48.4593 54.2061 48.4062 54.6808C48.353 55.1555 47.8746 55.3734 48.2032 55.635C48.5318 55.9014 48.4255 55.9208 48.7783 56.1C49.1311 56.2744 49.7255 56.502 50.1025 56.6086C50.4794 56.7151 50.4021 56.6619 50.9482 57.0106C51.4943 57.3593 51.5765 57.5434 51.8809 57.4126C52.1854 57.2818 52.3545 57.4901 52.6445 57.2043C52.9345 56.9186 52.6638 56.8944 52.9006 56.5795C53.1375 56.2647 53.3598 55.9062 53.6981 56.1048C54.0363 56.3034 53.7367 56.2501 54.2248 56.502C54.7081 56.7539 53.8769 56.7636 54.8869 56.8023C55.897 56.8411 55.6843 56.875 56.3367 56.8411C56.9892 56.812 56.965 56.812 57.2066 56.7393C57.4483 56.6715 57.3081 56.2744 57.7286 56.4875C58.1539 56.7054 58.5163 56.7248 58.8111 56.4197C59.1059 56.1145 59.1108 55.8287 59.4056 55.5866C59.7004 55.3444 59.8018 55.0538 59.8937 54.6905C59.9855 54.3272 60.0145 53.9881 59.9082 53.6927C59.8018 53.3972 60.0145 52.9177 59.4926 53.2664C58.9706 53.6103 58.7531 53.7556 58.3665 53.7605C57.9799 53.7653 57.6368 53.2519 57.2356 53.6539C56.8345 54.0608 56.7137 53.7024 56.2401 53.4456C55.7665 53.1889 56.2208 52.5447 55.7133 52.1233C55.2059 51.7019 54.9884 51.4549 54.7661 51.4743C54.5486 51.4936 54.3263 51.5179 54.1862 51.5808C54.046 51.6438 53.7077 51.6147 53.6739 51.9199C53.6352 52.2202 53.6401 52.2735 53.727 52.443C53.814 52.6125 54.2248 52.7433 54.2683 52.9032C54.3167 53.063 54.2683 53.1502 54.2297 53.1889C54.191 53.2277 54.1233 53.3488 53.8962 53.3924C53.6691 53.4311 53.6884 53.5474 53.6014 53.6346C53.5144 53.7217 53.3501 53.7847 53.3114 53.5474C53.2728 53.31 53.1036 53.3681 53.123 53.126C53.1423 52.8886 52.8813 52.6658 52.7267 52.3461C52.572 52.0264 52.456 52.0507 52.4609 51.7068C52.4657 51.3629 52.3739 51.0916 52.1322 50.8882C51.8906 50.6799 51.6441 50.646 51.4605 50.4668C51.2768 50.2876 51.0304 50.1858 50.9482 50.1277C50.866 50.0696 50.5954 49.6337 50.3924 49.5465C50.1895 49.4593 50.088 49.251 49.9913 49.1009C49.8947 48.9556 49.914 49.1106 49.7303 49.1009C49.5467 49.0863 49.3824 49.1832 49.3534 49.2413C49.3244 49.2995 49.3196 49.4884 49.3486 49.5901C49.3776 49.6918 49.6047 50.0357 49.8125 50.3505C50.0203 50.6654 50.3248 51.2418 50.6147 51.3338C50.9047 51.4258 51.2333 51.4646 51.4363 51.605C51.6345 51.7455 51.8761 51.8327 51.9341 51.9877C51.9921 52.1427 51.9728 52.2493 51.8809 52.2396C51.7891 52.2299 51.6151 51.9102 51.5088 51.9005C51.3977 51.8908 51.33 51.9635 51.272 52.041C51.214 52.1233 51.1512 52.2396 51.214 52.3074C51.2768 52.3752 51.3928 52.3897 51.3977 52.5496C51.4025 52.7094 51.3107 52.9322 51.2672 52.9952C51.2237 53.0582 51.0739 53.1889 51.0352 53.218C50.9965 53.2471 50.7887 53.4214 50.7936 53.2471C50.7984 53.0727 50.866 52.9032 50.9337 52.845C51.0014 52.7821 50.9675 52.5593 50.895 52.4139C50.8226 52.2686 50.7597 52.1233 50.6921 52.0604C50.6292 51.9974 49.9237 51.5276 49.8512 51.4694C49.7787 51.4065 49.0683 51.0432 48.8073 50.6508C48.5463 50.2585 48.1355 49.6966 47.8939 49.7693C47.6523 49.842 47.3623 50.1423 46.9902 50.2633C46.618 50.3893 45.9753 50.1132 45.7626 50.1859C45.55 50.2585 45.3615 50.4474 45.3325 50.6993C45.3035 50.9512 45.115 51.1982 44.9604 51.3096C44.8057 51.421 44.482 51.4161 44.1775 51.8182C43.873 52.2202 43.96 52.2347 43.8199 52.5641C43.6797 52.8935 43.6024 53.1696 43.3124 53.3342C43.0273 53.4989 42.5633 53.6152 42.1912 53.6152C41.8191 53.6152 41.7176 53.7847 41.4325 53.6297C41.1425 53.4699 41.0024 53.4117 40.6786 53.2035C40.3499 52.9952 40.2678 52.7917 40.2339 52.4527C40.1953 52.1136 40.5432 51.7746 40.4563 51.1449C40.3644 50.5104 40.3451 50.3748 40.5046 50.2052C40.6592 50.0357 41.476 49.9776 42.1622 50.0696C42.8485 50.1616 43.3946 50.5201 43.5976 49.9388C43.8005 49.3576 43.9262 48.9556 43.7377 48.7327C43.5492 48.5099 43.2883 48.0692 42.95 48.0159C42.6117 47.9626 42.2637 47.8657 42.4474 47.6817C42.6262 47.4976 43.1143 47.5315 43.3897 47.5121C43.6652 47.4928 43.5976 47.5315 43.8537 47.3426C44.1098 47.1537 44.366 47.115 44.5448 46.9793C44.7236 46.8437 44.9072 46.7032 45.1102 46.5579C45.3132 46.4175 46.1348 46.03 46.4296 45.565C46.7195 45.1 47.4009 44.9644 47.6523 45.0225C47.9036 45.0806 48.0582 44.9934 48.092 44.7028C48.1259 44.4122 47.8504 44.2087 47.8842 44.015C47.9181 43.8213 47.8504 43.5597 48.0002 43.458C48.1452 43.3563 48.5656 43.0124 48.643 43.085C48.7203 43.1577 48.8314 43.3224 48.701 43.5016C48.5705 43.6759 48.3433 43.8019 48.4207 44.0102C48.498 44.2184 48.3627 44.5381 48.5173 44.5914C48.672 44.6447 48.7348 44.6689 48.8943 44.7755C49.0538 44.882 49.2277 44.7028 49.508 44.7222C49.7932 44.7416 49.8608 44.9692 50.9289 44.7803C51.9969 44.5962 52.0694 44.7076 52.4125 44.4897C52.7557 44.2717 52.5769 43.7098 52.7508 43.5016C52.9248 43.2933 53.1278 43.1577 53.2873 43.2933C53.4467 43.4241 53.7174 43.5888 53.8769 43.4047C54.0363 43.2206 53.7271 42.7556 54.0508 42.5667C54.3746 42.3778 54.3746 42.5813 54.9497 42.4747C55.5248 42.3681 56.0951 42.218 55.6602 42.063C55.2252 41.9128 54.9352 41.8014 54.539 41.8208C54.1427 41.8402 53.1664 42.126 52.8475 41.5253C52.5285 40.9247 52.4609 40.7843 52.6783 40.5275C52.891 40.2708 53.2389 39.9221 53.6401 39.7283C54.0412 39.5298 59.0624 39.6169 61.619 40.605C64.1755 41.5932 64.9971 44.7803 65.4997 45.3519C66.0023 45.9234 66.3164 48.3985 65.7268 48.7279C65.1372 49.0573 64.9004 49.1493 64.5911 49.3527C64.2818 49.5562 63.5569 49.314 63.8565 49.8371C64.161 50.3602 64.3592 50.6266 64.6105 50.8252C64.8618 51.0238 65.4949 51.1594 65.316 51.668C65.1372 52.1766 64.8279 52.3752 65.3885 52.661C65.9491 52.9467 66.0651 53.2083 66.0651 53.2083C66.0651 53.2083 65.8138 55.3541 65.3257 55.5333C64.8376 55.7125 64.8424 55.7706 64.567 55.9208C64.2915 56.0709 64.2915 56.2308 64.4268 56.3761C64.5573 56.5214 64.8086 56.7829 64.8086 56.8798C64.8086 56.9767 62.0153 61.9172 61.242 62.3677C60.4688 62.8182 60.2368 62.915 60.2658 62.6438C60.2948 62.3774 60.3383 61.8882 60.2126 61.4765C60.087 61.0599 60 60.1977 59.768 59.5148C59.536 58.8318 58.5792 59.6407 58.7725 60.4109C58.9658 61.181 58.6275 60.7984 58.8256 61.7913C59.0238 62.7843 58.9658 62.8327 58.9948 63.0507C59.0238 63.2735 59.1543 64.465 59.1543 64.465C59.1543 64.465 42.6697 70.2871 41.2923 68.2722C39.915 66.2572 39.3157 61.9851 38.8808 61.0938C38.4458 60.1929 38.1172 58.5896 38.1172 58.5896Z" fill="#00934A"/>
<path d="M48.0235 51.4597C48.0863 51.4646 48.1588 51.4646 48.1974 51.6486C48.2409 51.8375 48.2168 52.133 48.1781 52.2686C48.1395 52.4043 48.2119 52.5205 48.1346 52.535C48.0573 52.5496 47.9316 52.5157 47.8978 52.5544C47.8592 52.5932 47.632 52.661 47.6803 52.4091C47.7287 52.1572 47.6948 52.1863 47.7093 52.0265C47.7238 51.8666 47.6079 51.8085 47.6224 51.7261C47.6368 51.6438 47.8785 51.4452 48.0235 51.4597Z" fill="#00934A"/>
<path d="M49.4167 53.3059C49.4167 53.3059 49.5423 53.4318 49.5858 53.4609C49.6293 53.4899 49.7453 53.5335 49.871 53.6013C49.9966 53.674 50.1271 53.7224 50.2044 53.766C50.2817 53.8096 50.3011 53.8144 50.3881 53.8144C50.475 53.8144 50.5379 53.7563 50.5379 53.674C50.5379 53.5916 50.5137 53.301 50.5669 53.2429C50.6152 53.1848 50.649 53.1024 50.6297 53.1121C50.6104 53.1218 50.2866 53.2284 50.2189 53.2284C50.1561 53.2284 49.9918 53.2187 49.9241 53.1993C49.8565 53.1799 49.7405 53.1073 49.6825 53.117C49.6245 53.1266 49.6583 53.1315 49.581 53.1605C49.5037 53.1848 49.3393 53.1993 49.4167 53.3059Z" fill="#00934A"/>
<path d="M43.2977 42.5952C43.2832 42.7308 43.2928 42.9004 43.3992 43.1038C43.5055 43.3072 43.5055 43.1958 43.5635 43.4622C43.6215 43.7286 43.7375 43.9418 43.8196 44.0193C43.9018 44.0968 43.9646 44.1258 44.1531 44.4019C44.3416 44.678 44.3271 44.7361 44.5204 45.0171C44.7137 45.2931 44.9988 45.3464 44.9988 45.5644C44.994 45.7824 45.1438 46.2474 44.7088 46.3878C44.2691 46.5283 44.1821 46.5428 43.9598 46.6009C43.7375 46.6639 43.0367 46.7366 42.9111 46.8141C42.7854 46.8916 42.3311 46.9061 42.3311 46.9061C42.3311 46.9061 42.2973 46.8673 42.4568 46.6348C42.6163 46.4023 42.5196 46.3152 42.7854 46.3345C43.0512 46.3539 43.2059 46.1892 43.2107 46.1892C43.2107 46.1892 43.1527 46.1699 42.9545 46.1214C42.7564 46.073 42.5728 46.0197 42.7516 45.8405C42.9304 45.6613 42.8047 45.4724 42.9594 45.3852C43.1189 45.2932 43.3798 45.3658 43.3943 45.143C43.4088 44.9202 43.6601 45.1914 43.4668 44.8717C43.2687 44.5472 43.259 44.5957 43.1092 44.4407C42.9546 44.2857 42.8482 44.2372 42.8096 44.0774C42.7709 43.9175 42.8676 43.7964 42.8337 43.6366C42.7999 43.4768 42.8482 43.4283 42.7371 43.1861C42.6259 42.944 42.6743 42.7454 42.7274 42.7115C42.7612 42.6727 43.2977 42.5952 43.2977 42.5952Z" fill="#00934A"/>
<path d="M40.615 46.2099C40.8035 46.3262 40.992 46.2293 41.1273 46.1373C41.2626 46.0404 41.2916 45.8563 41.5816 45.8515C41.8716 45.8467 41.8426 46.1276 42.0165 45.8321C42.1905 45.5367 42.1422 45.0135 42.1422 45.0135C42.1422 45.0135 42.1615 44.7568 42.3645 44.752C42.5626 44.7471 42.5288 44.4662 42.3983 44.4323C42.2678 44.3984 42.0649 44.3451 41.9537 44.379C41.8426 44.4129 41.7749 44.4129 41.5188 44.5921C41.2626 44.7714 41.3013 44.936 41.1853 44.9651C41.0693 44.9942 40.9485 45.154 40.8518 45.2799C40.7552 45.4059 40.6344 45.6529 40.5957 45.7885C40.557 45.9242 40.3637 46.0598 40.615 46.2099Z" fill="#00934A"/>
<path d="M47.4042 40.421C47.3801 40.639 47.3027 40.7746 47.2592 40.8763C47.2157 40.9781 47.0079 40.8618 46.9644 41.2057C46.9258 41.5496 46.747 41.5545 46.9258 41.8063C47.0997 42.0582 46.8533 42.1987 46.9741 42.3779C47.0949 42.5571 47.2496 42.8865 47.3076 42.8283C47.3656 42.7702 47.5637 42.6491 47.8198 42.654C48.076 42.6588 48.192 42.3488 48.4674 42.3198C48.7429 42.2907 48.7381 42.0824 48.883 42.1841C49.0232 42.2858 49.1053 42.8187 49.2213 42.9543C49.3422 43.0899 49.4291 43.3224 49.5306 43.4435C49.6321 43.5646 49.4726 44.0005 49.8013 43.9472C50.1299 43.894 50.1057 43.8068 50.3329 43.7777C50.56 43.7486 50.7098 43.86 50.8258 43.5113C50.9418 43.1626 50.9853 42.746 51.0143 42.6588C51.0433 42.5716 51.1931 42.3294 51.3816 42.2568C51.5701 42.1841 51.6136 42.1163 51.5217 41.8596C51.4299 41.6029 51.1013 41.7869 51.1158 41.4285C51.1303 41.0701 51.1544 40.6923 51.1544 40.6923C51.1544 40.6923 51.2608 40.5179 51.4686 40.3774C51.6764 40.237 52.0775 40.2176 52.2515 40.0723C52.4255 39.927 52.411 39.2101 52.4255 39.1375C52.44 39.0648 50.0332 39.2731 50.0332 39.2731L47.4042 40.421Z" fill="#00934A"/>
</g>
<path d="M55.8262 22.6392L56.7518 22.8408L56.0827 25.9268L55.1571 25.7252L55.8262 22.6392Z" fill="#949698"/>
<path d="M58.5078 25.1123L58.3067 26.04L53.0788 24.9014L53.2799 23.9737L58.5078 25.1123Z" fill="#949698"/>
<path d="M56.4023 20.71L57.0257 20.8457L54.846 30.8991L54.2226 30.7633L56.4023 20.71Z" fill="#949698"/>
<path d="M57.5234 21.2959L57.388 21.9207L55.0975 21.4218L55.233 20.7971L57.5234 21.2959Z" fill="#949698"/>
<path d="M55.0957 25.9819L56.0308 26.1856L55.5084 28.5948L54.5734 28.3911L55.0957 25.9819Z" fill="#949698"/>
<path d="M54.5137 28.6582L55.4487 28.8619L55.2476 29.7896L54.3125 29.5859L54.5137 28.6582Z" fill="#949698"/>
<path d="M56.9414 30.4365L56.8265 30.9666L52.3873 29.9998L52.5022 29.4697L56.9414 30.4365Z" fill="#949698"/>
<path d="M63.4844 26.3633L63.3489 26.9881L48.0856 23.6638L48.2211 23.039L63.4844 26.3633Z" fill="#949698"/>
<path d="M50.3184 23.002L50.2732 23.2102L48.2803 22.7762L48.3254 22.5679L50.3184 23.002Z" fill="#949698"/>
<path d="M52.8379 23.5513L52.7927 23.7595L50.7998 23.3255L50.845 23.1172L52.8379 23.5513Z" fill="#949698"/>
<path d="M61.0645 25.3589L61.0193 25.5671L59.0264 25.1331L59.0715 24.9248L61.0645 25.3589Z" fill="#949698"/>
<path d="M63.584 25.9087L63.5388 26.117L61.5459 25.6829L61.5911 25.4746L63.584 25.9087Z" fill="#949698"/>
<path d="M61.2578 27.0298L61.303 26.8215L63.2959 27.2556L63.2507 27.4638L61.2578 27.0298Z" fill="#949698"/>
<path d="M58.7344 26.481L58.7795 26.2727L60.7724 26.7067L60.7273 26.915L58.7344 26.481Z" fill="#949698"/>
<path d="M50.5156 24.6704L50.5608 24.4621L52.5537 24.8962L52.5085 25.1045L50.5156 24.6704Z" fill="#949698"/>
<path d="M47.9883 24.1201L48.0334 23.9119L50.0264 24.3459L49.9812 24.5542L47.9883 24.1201Z" fill="#949698"/>
<path d="M30.2573 49.8076C30.4922 49.8076 30.6826 49.6167 30.6826 49.3813C30.6826 49.1459 30.4922 48.9551 30.2573 48.9551C30.0224 48.9551 29.832 49.1459 29.832 49.3813C29.832 49.6167 30.0224 49.8076 30.2573 49.8076Z" fill="#FFCD34"/>
<path d="M32.3101 56.3664C32.4382 56.3664 32.5421 56.2623 32.5421 56.1339C32.5421 56.0055 32.4382 55.9014 32.3101 55.9014C32.182 55.9014 32.0781 56.0055 32.0781 56.1339C32.0781 56.2623 32.182 56.3664 32.3101 56.3664Z" fill="#FFCD34"/>
<path d="M23.9419 55.8961C24.0219 55.8961 24.0868 55.831 24.0868 55.7508C24.0868 55.6705 24.0219 55.6055 23.9419 55.6055C23.8618 55.6055 23.7969 55.6705 23.7969 55.7508C23.7969 55.831 23.8618 55.8961 23.9419 55.8961Z" fill="#FFCD34"/>
<path d="M48.4917 14.0175C48.7266 14.0175 48.917 13.8267 48.917 13.5913C48.917 13.3559 48.7266 13.165 48.4917 13.165C48.2568 13.165 48.0664 13.3559 48.0664 13.5913C48.0664 13.8267 48.2568 14.0175 48.4917 14.0175Z" fill="#FFCD34"/>
<path d="M46.9234 34.9806C47.0515 34.9806 47.1554 34.8765 47.1554 34.7481C47.1554 34.6197 47.0515 34.5156 46.9234 34.5156C46.7953 34.5156 46.6914 34.6197 46.6914 34.7481C46.6914 34.8765 46.7953 34.9806 46.9234 34.9806Z" fill="#FFCD34"/>
<path d="M45.727 10.5689C45.8071 10.5689 45.872 10.5039 45.872 10.4236C45.872 10.3434 45.8071 10.2783 45.727 10.2783C45.6469 10.2783 45.582 10.3434 45.582 10.4236C45.582 10.5039 45.6469 10.5689 45.727 10.5689Z" fill="#FFCD34"/>
<path d="M59.4976 38.3957C59.6257 38.3957 59.7296 38.2916 59.7296 38.1632C59.7296 38.0348 59.6257 37.9307 59.4976 37.9307C59.3695 37.9307 59.2656 38.0348 59.2656 38.1632C59.2656 38.2916 59.3695 38.3957 59.4976 38.3957Z" fill="#FFCD34"/>
<path d="M53.6919 34.2833C53.7719 34.2833 53.8368 34.2182 53.8368 34.138C53.8368 34.0577 53.7719 33.9927 53.6919 33.9927C53.6118 33.9927 53.5469 34.0577 53.5469 34.138C53.5469 34.2182 53.6118 34.2833 53.6919 34.2833Z" fill="#FFCD34"/>
<path d="M13.0093 45.0026C13.1374 45.0026 13.2413 44.8985 13.2413 44.7701C13.2413 44.6417 13.1374 44.5376 13.0093 44.5376C12.8812 44.5376 12.7773 44.6417 12.7773 44.7701C12.7773 44.8985 12.8812 45.0026 13.0093 45.0026Z" fill="#FFCD34"/>
<path d="M24.349 48.0255C24.1943 46.1849 22.8315 44.7414 21.1062 44.4072C21.6739 44.6744 22.1614 45.0869 22.5194 45.6031C22.8775 46.1192 23.0935 46.7209 23.1456 47.3473C23.3099 49.3187 21.8504 51.0479 19.8883 51.2126C18.4385 51.3337 17.1143 50.5684 16.457 49.3672C16.9355 51.2368 18.6994 52.5446 20.6857 52.3751C22.8943 52.191 24.5374 50.2439 24.349 48.0255Z" fill="#C9BC9B"/>
<path d="M23.1426 47.3475C23.0904 46.721 22.8744 46.1193 22.5164 45.6032C22.1584 45.087 21.6709 44.6745 21.1031 44.4073C20.9581 44.3783 20.8083 44.3589 20.6537 44.3492C20.441 44.3347 20.2236 44.3347 20.0061 44.3541C17.7975 44.543 16.1544 46.4901 16.3428 48.7037C16.3477 48.7376 16.3477 48.7667 16.3525 48.8006C16.3718 48.9943 16.4105 49.1881 16.454 49.3721C17.1113 50.5734 18.4354 51.3435 19.8853 51.2176C20.8287 51.136 21.7014 50.6828 22.312 49.9573C22.9226 49.2318 23.2213 48.2933 23.1426 47.3475Z" fill="#E2D3AA"/>
<path opacity="0.2" d="M62.0294 49.6914C61.5461 43.9129 57.2546 39.3744 51.8419 38.333C55.3457 39.9895 57.9022 43.414 58.2502 47.5651C58.7721 53.7504 54.1858 59.1899 48.0143 59.713C43.4522 60.0957 39.3008 57.6884 37.2324 53.9103C38.7306 59.7857 44.2834 63.8883 50.5129 63.3652C57.4576 62.7694 62.6142 56.6518 62.0294 49.6914Z" fill="#8EE1EF"/>
<path d="M49.4746 17.2246L50.4004 17.4252L49.2699 22.6661L48.344 22.4655L49.4746 17.2246Z" fill="#FBAB18"/>
<path d="M50.541 17.457L51.4668 17.6577L50.3363 22.8985L49.4105 22.6979L50.541 17.457Z" fill="#FBAB18"/>
<path d="M51.998 17.7715L52.9239 17.9721L51.7933 23.213L50.8675 23.0123L51.998 17.7715Z" fill="#FBAB18"/>
<path d="M53.0645 18.0049L53.9903 18.2055L52.8597 23.4464L51.9339 23.2457L53.0645 18.0049Z" fill="#FBAB18"/>
<path d="M60.2227 19.5742L61.1485 19.7748L60.0179 25.0157L59.0921 24.8151L60.2227 19.5742Z" fill="#FBAB18"/>
<path d="M61.291 19.8071L62.2168 20.0078L61.0863 25.2486L60.1605 25.048L61.291 19.8071Z" fill="#FBAB18"/>
<path d="M62.7441 20.1216L63.67 20.3222L62.5394 25.5631L61.6136 25.3624L62.7441 20.1216Z" fill="#FBAB18"/>
<path d="M63.8125 20.3545L64.7383 20.5551L63.6078 25.796L62.6819 25.5954L63.8125 20.3545Z" fill="#FBAB18"/>
<path d="M62.0898 32.8281L61.164 32.6275L62.2946 27.3866L63.2204 27.5873L62.0898 32.8281Z" fill="#FBAB18"/>
<path d="M61.0195 32.5977L60.0937 32.397L61.2243 27.1562L62.1501 27.3568L61.0195 32.5977Z" fill="#FBAB18"/>
<path d="M59.5645 32.2817L58.6386 32.0811L59.7692 26.8403L60.695 27.0409L59.5645 32.2817Z" fill="#FBAB18"/>
<path d="M58.4961 32.0503L57.5703 31.8497L58.7008 26.6088L59.6267 26.8094L58.4961 32.0503Z" fill="#FBAB18"/>
<path d="M51.3379 30.479L50.4121 30.2784L51.5426 25.0375L52.4685 25.2381L51.3379 30.479Z" fill="#FBAB18"/>
<path d="M50.2734 30.25L49.3476 30.0494L50.4782 24.8085L51.404 25.0091L50.2734 30.25Z" fill="#FBAB18"/>
<path d="M48.8203 29.9336L47.8945 29.733L49.025 24.4921L49.9509 24.6927L48.8203 29.9336Z" fill="#FBAB18"/>
<path d="M47.75 29.7026L46.8242 29.502L47.9547 24.2612L48.8806 24.4618L47.75 29.7026Z" fill="#FBAB18"/>
<path d="M54.2812 28.3447L53.3554 28.1441L53.9631 25.3272L54.8889 25.5278L54.2812 28.3447Z" fill="#FBAB18"/>
<path d="M56.6895 28.8667L55.7636 28.6661L56.3713 25.8492L57.2971 26.0498L56.6895 28.8667Z" fill="#FBAB18"/>
<path d="M49.498 17.2148L50.4239 17.4155L49.2933 22.6563L48.3675 22.4557L49.498 17.2148Z" fill="#EDA70C"/>
<path d="M50.5664 17.4434L51.4922 17.644L50.3617 22.8848L49.4358 22.6842L50.5664 17.4434Z" fill="#EDA70C"/>
<path d="M52.0215 17.7617L52.9473 17.9623L51.8168 23.2032L50.8909 23.0026L52.0215 17.7617Z" fill="#EDA70C"/>
<path d="M53.0898 17.9902L54.0157 18.1909L52.8851 23.4317L51.9593 23.2311L53.0898 17.9902Z" fill="#EDA70C"/>
<path d="M60.248 19.5596L61.1739 19.7602L60.0433 25.0011L59.1175 24.8004L60.248 19.5596Z" fill="#EDA70C"/>
<path d="M61.3105 19.792L62.2364 19.9926L61.1058 25.2335L60.18 25.0329L61.3105 19.792Z" fill="#EDA70C"/>
<path d="M62.7695 20.1074L63.6954 20.308L62.5648 25.5489L61.639 25.3483L62.7695 20.1074Z" fill="#EDA70C"/>
<path d="M63.834 20.3389L64.7598 20.5395L63.6293 25.7804L62.7034 25.5797L63.834 20.3389Z" fill="#EDA70C"/>
<path d="M62.1094 32.8169L61.1835 32.6163L62.3141 27.3754L63.2399 27.576L62.1094 32.8169Z" fill="#EDA70C"/>
<path d="M61.0469 32.582L60.121 32.3814L61.2516 27.1405L62.1774 27.3412L61.0469 32.582Z" fill="#EDA70C"/>
<path d="M59.5859 32.2695L58.6601 32.0689L59.7907 26.828L60.7165 27.0287L59.5859 32.2695Z" fill="#EDA70C"/>
<path d="M58.5234 32.0352L57.5976 31.8345L58.7282 26.5937L59.654 26.7943L58.5234 32.0352Z" fill="#EDA70C"/>
<path d="M51.3633 30.4688L50.4375 30.2681L51.568 25.0273L52.4938 25.2279L51.3633 30.4688Z" fill="#EDA70C"/>
<path d="M50.2969 30.2324L49.371 30.0318L50.5016 24.7909L51.4274 24.9916L50.2969 30.2324Z" fill="#EDA70C"/>
<path d="M48.8438 29.9219L47.9179 29.7213L49.0485 24.4804L49.9743 24.681L48.8438 29.9219Z" fill="#EDA70C"/>
<path d="M47.7773 29.6875L46.8515 29.4869L47.9821 24.246L48.9079 24.4466L47.7773 29.6875Z" fill="#EDA70C"/>
<path d="M54.3047 28.334L53.3789 28.1334L53.9865 25.3165L54.9124 25.5171L54.3047 28.334Z" fill="#EDA70C"/>
<path d="M56.7109 28.8555L55.7851 28.6548L56.3928 25.8379L57.3186 26.0386L56.7109 28.8555Z" fill="#EDA70C"/>
<path d="M49.4141 17.6074L50.3399 17.808L49.3983 22.1731L48.4724 21.9724L49.4141 17.6074Z" fill="#F7B719"/>
<path d="M50.4824 17.8403L51.4083 18.041L50.4666 22.406L49.5408 22.2053L50.4824 17.8403Z" fill="#F7B719"/>
<path d="M51.9375 18.1548L52.8633 18.3554L51.9217 22.7204L50.9959 22.5198L51.9375 18.1548Z" fill="#F7B719"/>
<path d="M53.0059 18.3877L53.9317 18.5883L52.9901 22.9533L52.0642 22.7527L53.0059 18.3877Z" fill="#F7B719"/>
<path d="M60.1641 19.957L61.0899 20.1577L60.1483 24.5227L59.2224 24.322L60.1641 19.957Z" fill="#F7B719"/>
<path d="M61.2266 20.189L62.1524 20.3896L61.2108 24.7546L60.2849 24.554L61.2266 20.189Z" fill="#F7B719"/>
<path d="M62.6855 20.5044L63.6114 20.705L62.6698 25.07L61.7439 24.8694L62.6855 20.5044Z" fill="#F7B719"/>
<path d="M63.748 20.7363L64.6739 20.937L63.7323 25.302L62.8064 25.1013L63.748 20.7363Z" fill="#F7B719"/>
<path d="M62.2148 32.334L61.289 32.1334L62.2306 27.7683L63.1565 27.969L62.2148 32.334Z" fill="#F7B719"/>
<path d="M61.1504 32.103L60.2246 31.9024L61.1662 27.5374L62.092 27.738L61.1504 32.103Z" fill="#F7B719"/>
<path d="M59.6934 31.7866L58.7675 31.586L59.7092 27.221L60.635 27.4216L59.6934 31.7866Z" fill="#F7B719"/>
<path d="M58.627 31.5571L57.7011 31.3565L58.6427 26.9915L59.5686 27.1921L58.627 31.5571Z" fill="#F7B719"/>
<path d="M51.4707 29.9858L50.5449 29.7852L51.4865 25.4202L52.4123 25.6208L51.4707 29.9858Z" fill="#F7B719"/>
<path d="M50.4043 29.7554L49.4785 29.5547L50.4201 25.1897L51.3459 25.3904L50.4043 29.7554Z" fill="#F7B719"/>
<path d="M48.9473 29.438L48.0214 29.2374L48.9631 24.8724L49.8889 25.073L48.9473 29.438Z" fill="#F7B719"/>
<path d="M47.8828 29.2085L46.957 29.0079L47.8986 24.6429L48.8244 24.8435L47.8828 29.2085Z" fill="#F7B719"/>
<path d="M54.4082 27.8501L53.4824 27.6495L53.9011 25.7084L54.8269 25.909L54.4082 27.8501Z" fill="#F7B719"/>
<path d="M56.8184 28.3721L55.8925 28.1714L56.3113 26.2304L57.2371 26.431L56.8184 28.3721Z" fill="#F7B719"/>
<path d="M49.3203 18.043L50.2461 18.2436L49.4935 21.7328L48.5676 21.5321L49.3203 18.043Z" fill="#FCC324"/>
<path d="M50.3887 18.2754L51.3145 18.476L50.5618 21.9652L49.636 21.7646L50.3887 18.2754Z" fill="#FCC324"/>
<path d="M51.8418 18.5898L52.7676 18.7905L52.0149 22.2796L51.0891 22.079L51.8418 18.5898Z" fill="#FCC324"/>
<path d="M52.9102 18.8228L53.836 19.0234L53.0833 22.5126L52.1575 22.3119L52.9102 18.8228Z" fill="#FCC324"/>
<path d="M60.0684 20.3926L60.9942 20.5932L60.2415 24.0824L59.3157 23.8818L60.0684 20.3926Z" fill="#FCC324"/>
<path d="M61.1309 20.624L62.0567 20.8246L61.304 24.3138L60.3782 24.1132L61.1309 20.624Z" fill="#FCC324"/>
<path d="M62.5918 20.9399L63.5176 21.1406L62.7649 24.6297L61.8391 24.4291L62.5918 20.9399Z" fill="#FCC324"/>
<path d="M63.6543 21.1719L64.5801 21.3725L63.8274 24.8617L62.9016 24.661L63.6543 21.1719Z" fill="#FCC324"/>
<path d="M62.3086 31.8979L61.3828 31.6973L62.1354 28.2082L63.0613 28.4088L62.3086 31.8979Z" fill="#FCC324"/>
<path d="M61.2441 31.6675L60.3183 31.4669L61.071 27.9777L61.9968 28.1783L61.2441 31.6675Z" fill="#FCC324"/>
<path d="M59.7871 31.3506L58.8613 31.15L59.614 27.6608L60.5398 27.8614L59.7871 31.3506Z" fill="#FCC324"/>
<path d="M58.7207 31.1216L57.7949 30.921L58.5476 27.4318L59.4734 27.6324L58.7207 31.1216Z" fill="#FCC324"/>
<path d="M51.5645 29.5503L50.6386 29.3497L51.3913 25.8605L52.3171 26.0611L51.5645 29.5503Z" fill="#FCC324"/>
<path d="M50.5 29.3198L49.5742 29.1192L50.3269 25.63L51.2527 25.8307L50.5 29.3198Z" fill="#FCC324"/>
<path d="M49.041 29.0024L48.1152 28.8018L48.8679 25.3126L49.7937 25.5133L49.041 29.0024Z" fill="#FCC324"/>
<path d="M47.9766 28.7734L47.0507 28.5728L47.8034 25.0836L48.7292 25.2843L47.9766 28.7734Z" fill="#FCC324"/>
<path d="M53.5781 27.2121L54.506 27.4155L54.7332 26.3451L53.8053 26.1465L53.5781 27.2121Z" fill="#FCC324"/>
<path d="M55.9883 27.7355L56.9162 27.939L57.1433 26.8685L56.2154 26.6699L55.9883 27.7355Z" fill="#FCC324"/>
<path d="M50.1486 18.6771L49.2208 18.4785L48.6602 21.0941L49.588 21.2975L50.1486 18.6771Z" fill="#FFCD34"/>
<path d="M51.219 18.9095L50.2911 18.7109L49.7305 21.3265L50.6584 21.53L51.219 18.9095Z" fill="#FFCD34"/>
<path d="M52.6721 19.2245L51.7442 19.0259L51.1836 21.6415L52.1115 21.8449L52.6721 19.2245Z" fill="#FFCD34"/>
<path d="M53.7404 19.4574L52.8126 19.2588L52.252 21.8744L53.1798 22.0778L53.7404 19.4574Z" fill="#FFCD34"/>
<path d="M60.8986 21.0267L59.9708 20.8281L59.4102 23.4437L60.338 23.6471L60.8986 21.0267Z" fill="#FFCD34"/>
<path d="M61.9602 21.2587L61.0323 21.0601L60.4766 23.6756L61.4045 23.8791L61.9602 21.2587Z" fill="#FFCD34"/>
<path d="M63.4201 21.5736L62.4922 21.375L61.9316 23.9906L62.8595 24.194L63.4201 21.5736Z" fill="#FFCD34"/>
<path d="M64.4837 21.806L63.5558 21.6074L63 24.223L63.9279 24.4264L64.4837 21.806Z" fill="#FFCD34"/>
<path d="M61.4785 31.2611L62.4064 31.4645L62.967 28.8441L62.0391 28.6455L61.4785 31.2611Z" fill="#FFCD34"/>
<path d="M60.4141 31.0282L61.3371 31.2316L61.8977 28.6112L60.9698 28.4126L60.4141 31.0282Z" fill="#FFCD34"/>
<path d="M58.9551 30.7132L59.883 30.9167L60.4436 28.2962L59.5157 28.0977L58.9551 30.7132Z" fill="#FFCD34"/>
<path d="M57.8867 30.4813L58.8146 30.6847L59.3752 28.0692L58.4473 27.8657L57.8867 30.4813Z" fill="#FFCD34"/>
<path d="M50.7305 28.9115L51.6584 29.1149L52.219 26.4945L51.2911 26.2959L50.7305 28.9115Z" fill="#FFCD34"/>
<path d="M49.666 28.6791L50.5939 28.8825L51.1545 26.2669L50.2266 26.0635L49.666 28.6791Z" fill="#FFCD34"/>
<path d="M48.207 28.3646L49.1349 28.568L49.6955 25.9476L48.7676 25.749L48.207 28.3646Z" fill="#FFCD34"/>
<path d="M47.1445 28.1322L48.0724 28.3356L48.633 25.72L47.7051 25.5166L47.1445 28.1322Z" fill="#FFCD34"/>
<path d="M53.5762 27.2117L54.5041 27.4151L54.6346 26.7855L53.7067 26.582L53.5762 27.2117Z" fill="#FFCD34"/>
<path d="M55.9883 27.7351L56.9162 27.9386L57.0467 27.3089L56.1188 27.1055L55.9883 27.7351Z" fill="#FFCD34"/>
<path d="M32.9707 11.7397L35.6431 11.7117L35.6745 14.7195L33.0021 14.7475L32.9707 11.7397Z" fill="#6F6A76"/>
<path d="M15.3691 4.52881L18.5249 9.65342C18.5298 9.66311 18.5394 9.67764 18.5443 9.68733L15.3885 4.56271C15.3788 4.55303 15.374 4.54334 15.3691 4.52881Z" fill="#D31B80"/>
<path d="M20.782 13.5911L17.6262 8.46651L15.3887 4.5625L18.5445 9.68712L20.782 13.5911Z" fill="#6F6A76"/>
<path d="M14.403 3.91338C14.8186 3.9812 15.1811 4.20401 15.3889 4.56728L17.6264 8.47129C18.0372 9.193 17.6748 10.186 16.8145 10.6945C16.3844 10.9464 15.9108 11.0336 15.4904 10.9658C15.0747 10.898 14.7123 10.6752 14.5045 10.3119L12.2669 6.40304C11.8561 5.68133 12.2186 4.68837 13.0788 4.17979C13.5089 3.92792 13.9825 3.84073 14.403 3.91338Z" fill="#B0A9B7"/>
<path d="M17.6831 15.4659L14.5273 10.3413C14.7352 10.6803 15.0879 10.8934 15.4939 10.9564C15.9095 11.0242 16.3831 10.9419 16.8181 10.6852C17.6783 10.1766 18.0456 9.18362 17.63 8.46191L20.7858 13.5865C21.1966 14.3082 20.8341 15.3012 19.9739 15.8098C19.5438 16.0617 19.0702 16.1488 18.6497 16.081C18.2437 16.0181 17.891 15.8049 17.6831 15.4659Z" fill="#D31B80"/>
<path d="M12.0316 27.7592L8.38281 23.2207L14.8587 8.45718L17.6666 7.75L28.3615 10.2832L24.5919 21.4043L17.3186 28.4858L12.0316 27.7592Z" fill="#958D9C"/>
<path d="M43.8371 17.3499C43.9048 17.161 43.8855 16.9769 43.7985 16.8316L39.8211 10.375C39.9081 10.5203 39.9274 10.7044 39.8598 10.8933L38.4196 14.8263C38.3519 15.0152 38.3713 15.1993 38.4583 15.3446L42.4356 21.8012C42.3486 21.6559 42.3293 21.4719 42.397 21.283L43.8371 17.3499Z" fill="#6F6A76"/>
<path d="M35.53 20.8908C35.2256 20.3968 34.7036 20.0383 34.0222 19.9269L29.953 19.2537C28.5467 19.0212 27.005 19.9269 26.5121 21.2832C26.2559 21.9855 26.3284 22.6636 26.6522 23.1916L30.6296 29.6482C30.3058 29.1202 30.2333 28.4373 30.4894 27.7398C30.9824 26.3884 32.524 25.4778 33.9304 25.7103L37.9996 26.3836C38.6762 26.495 39.2029 26.8534 39.5074 27.3475L35.53 20.8908Z" fill="#958D9C"/>
<path d="M36.0125 21.6657C35.708 21.1717 35.186 20.8133 34.5046 20.7018L30.4354 20.0286C29.0291 19.7961 27.4874 20.7018 26.9945 22.0581C26.7384 22.7604 26.8108 23.4385 27.1346 23.9665L31.112 30.4231C30.7882 29.8952 30.7157 29.2122 30.9719 28.5147C31.4648 27.1633 33.0065 26.2527 34.4128 26.4852L38.482 27.1585C39.1586 27.2699 39.6854 27.6283 39.9898 28.1224L36.0125 21.6657Z" fill="#6F6A76"/>
<path d="M9.833 25.8217C10.2438 25.8895 10.4564 26.2625 10.3114 26.6597C10.1665 27.052 9.71702 27.3184 9.31107 27.2506C8.90028 27.1828 8.68764 26.805 8.83262 26.4127C8.9776 26.0155 9.42222 25.7539 9.833 25.8217Z" fill="#6F6A76"/>
<path d="M39.9267 15.7757L38.8683 15.6013C38.4865 15.5383 38.2884 15.1896 38.4237 14.8215L39.8639 10.8884C39.9992 10.5203 39.7962 10.1715 39.4193 10.1086L14.7528 6.01567C14.371 5.9527 13.9554 6.19972 13.8201 6.563L5.11623 30.3309C4.98092 30.6991 5.18389 31.043 5.56085 31.1059L30.2273 35.1988C30.6091 35.2618 31.0247 35.0148 31.1601 34.6515L32.6002 30.7184C32.7355 30.3503 33.1512 30.1081 33.5329 30.1711L34.543 30.3406C34.6396 30.3552 34.7508 30.2922 34.7846 30.2002L40.004 15.9307C40.033 15.8532 39.9944 15.7902 39.9267 15.7757ZM33.3735 13.5573L33.8422 12.2785C33.8761 12.1914 33.9776 12.1284 34.0694 12.1478L35.2824 12.3512C35.3742 12.3657 35.4226 12.4529 35.3887 12.5401L34.9199 13.8188C34.8861 13.906 34.7846 13.969 34.6928 13.9496L33.4798 13.7462C33.3928 13.7316 33.3445 13.6445 33.3735 13.5573ZM24.0704 20.8325L19.1071 26.4899C18.3677 27.3327 17.2175 27.7735 16.1881 27.5991L12.4186 26.9743C12.2591 26.9452 12.1044 26.9065 11.9594 26.8532C11.9401 26.8483 11.9208 26.8386 11.9014 26.8338C11.8918 26.829 11.887 26.829 11.8773 26.8241C11.4133 26.6304 10.8769 26.1508 10.6739 25.744L9.92484 24.2327L9.26276 22.9007C9.14194 22.6537 9.13227 22.3582 9.23859 22.0725L10.1133 19.6894C10.4806 18.6867 11.2732 17.8052 12.3316 17.2482C12.6457 17.0835 12.8922 16.8074 13.0082 16.4974L15.3182 10.1812C15.6275 9.34327 16.5796 8.78141 17.4495 8.92187L26.4481 10.4234C27.318 10.5687 27.7771 11.3631 27.4678 12.2059L24.6841 19.8153C24.5536 20.1737 24.341 20.5225 24.0704 20.8325ZM35.6739 22.799C35.1809 24.1504 33.6393 25.061 32.2329 24.8285L28.1637 24.1553C26.7574 23.9228 26.018 22.6343 26.5158 21.2829C27.0087 19.9316 28.5504 19.0209 29.9567 19.2534L34.0259 19.9267C35.4322 20.1592 36.1668 21.4476 35.6739 22.799Z" fill="#C6BECD"/>
<path d="M39.998 15.8291L43.9754 22.2857C43.9899 22.3148 43.9948 22.3487 43.9803 22.3826L40.0029 15.926C40.0222 15.8872 40.0174 15.8533 39.998 15.8291Z" fill="#958D9C"/>
<path d="M29.358 20.8373C29.8461 20.9196 30.1022 21.3653 29.9331 21.8399C29.7591 22.3098 29.2227 22.6295 28.7346 22.5471C28.2464 22.4648 27.9855 22.0192 28.1595 21.5445C28.3286 21.0698 28.865 20.755 29.358 20.8373Z" fill="#6F6A76"/>
<path d="M34.7888 30.1953C34.755 30.2921 34.6438 30.3551 34.5472 30.3357L33.5371 30.1662L37.5145 36.6228L38.5245 36.7924C38.626 36.8069 38.7323 36.7439 38.7662 36.6519L43.9856 22.3824L40.0082 15.9258L34.7888 30.1953Z" fill="#958D9C"/>
<path d="M33.5331 30.1714C33.1513 30.1085 32.7356 30.3555 32.6003 30.7188L31.1602 34.6518L35.1375 41.1085L36.5777 37.1754C36.713 36.8073 37.1286 36.5651 37.5104 36.6281L33.5331 30.1714Z" fill="#6F6A76"/>
<path d="M31.1653 34.6514C31.03 35.0195 30.6144 35.2617 30.2326 35.1987L5.56611 31.1058C5.38247 31.0767 5.24231 30.9799 5.16016 30.8442L9.13753 37.3009C9.21969 37.4365 9.35984 37.5334 9.54348 37.5624L34.21 41.6553C34.5918 41.7183 35.0074 41.4713 35.1427 41.108L31.1653 34.6514Z" fill="#958D9C"/>
<path d="M43.6727 27.7209L39.6953 21.2642L41.5269 16.2559L45.5043 22.7125L43.6727 27.7209Z" fill="#C6BECD"/>
<path d="M42.1649 31.8375L38.1875 25.3809L38.8158 25.4826L42.7931 31.9392L42.1649 31.8375Z" fill="#6F6A76"/>
<path d="M42.9236 32.8354L38.9414 26.3787L41.0533 20.6147L45.0307 27.0714L42.9236 32.8354Z" fill="#C6BECD"/>
<path d="M40.3328 36.8459L36.3555 30.3892L38.1871 25.3809L42.1645 31.8375L40.3328 36.8459Z" fill="#C6BECD"/>
<path d="M42.4939 32.7628L38.5117 26.3062L38.9418 26.3788L42.924 32.8354L42.4939 32.7628Z" fill="#6F6A76"/>
<path d="M38.5105 26.3064L38.815 25.483L38.1867 25.3812L36.3551 30.3896L34.8086 30.1329L39.9797 15.999L41.5262 16.2557L39.6945 21.2641L40.318 21.3658L40.6224 20.5424L41.0525 20.6151L38.9406 26.379L38.5105 26.3064Z" fill="#DBD9DA"/>
<path d="M38.7908 36.5894L34.8086 30.1328L36.3551 30.3895L40.3325 36.8462L38.7908 36.5894Z" fill="#6F6A76"/>
<path d="M33.4478 21.5155C33.9359 21.5979 34.1921 22.0435 34.0229 22.5182C33.8489 22.988 33.3125 23.3077 32.8244 23.2253C32.3363 23.143 32.0753 22.6974 32.2493 22.2227C32.4233 21.748 32.9597 21.4332 33.4478 21.5155Z" fill="#6F6A76"/>
<path d="M30.8541 20.5713L31.2552 21.2349C31.5017 21.6321 31.5549 22.1455 31.3616 22.6734C30.9894 23.6906 29.8296 24.3784 28.7712 24.1992C28.2589 24.112 27.8675 23.8456 27.6355 23.4727L27.2344 22.8091C27.4615 23.182 27.8578 23.4484 28.3701 23.5356C29.4285 23.71 30.5883 23.027 30.9604 22.0099C31.1538 21.4819 31.1006 20.9685 30.8541 20.5713Z" fill="#958D9C"/>
<path d="M29.7216 19.8446C30.78 20.0189 31.3358 20.9877 30.9636 22.0097C30.5915 23.0269 29.4316 23.7147 28.3733 23.5354C27.3149 23.3611 26.7591 22.3923 27.1312 21.3703C27.4985 20.3531 28.6632 19.6702 29.7216 19.8446ZM28.7309 22.5425C29.219 22.6248 29.7554 22.3051 29.9294 21.8353C30.1034 21.3655 29.8473 20.915 29.3543 20.8327C28.8662 20.7503 28.3249 21.07 28.1558 21.5398C27.9866 22.0145 28.2428 22.465 28.7309 22.5425Z" fill="#C6BECD"/>
<path d="M33.8115 20.5223C34.8698 20.6967 35.4256 21.6654 35.0535 22.6874C34.6814 23.7046 33.5215 24.3924 32.4631 24.2132C31.4047 24.0388 30.849 23.0701 31.2211 22.0481C31.5932 21.0309 32.7531 20.3479 33.8115 20.5223ZM32.8256 23.2202C33.3137 23.3026 33.8549 22.9829 34.0241 22.513C34.1981 22.0432 33.9419 21.5927 33.449 21.5104C32.9609 21.4281 32.4244 21.7477 32.2505 22.2176C32.0765 22.6923 32.3375 23.1427 32.8256 23.2202Z" fill="#C6BECD"/>
<path d="M27.8848 21.6706L28.2086 22.2082L29.8807 21.1717L29.5762 20.6631L27.8848 21.6706Z" fill="#6F6A76"/>
<path d="M29.0455 20.3145C29.5336 20.3968 29.7897 20.8424 29.6206 21.3171C29.4466 21.7869 28.9102 22.1066 28.4221 22.0243C27.9339 21.9419 27.673 21.4963 27.847 21.0216C28.0161 20.5518 28.5525 20.237 29.0455 20.3145Z" fill="#DBD9DA"/>
<path d="M31.9746 22.3488L32.2984 22.8864L33.9754 21.8499L33.6661 21.3413L31.9746 22.3488Z" fill="#6F6A76"/>
<path d="M33.1353 20.9975C33.6234 21.0798 33.8796 21.5254 33.7104 22.0001C33.5364 22.4699 33 22.7896 32.5119 22.7073C32.0238 22.6249 31.7628 22.1793 31.9368 21.7046C32.1108 21.23 32.6472 20.9151 33.1353 20.9975Z" fill="#DBD9DA"/>
<path d="M17.2485 24.4314C17.6545 24.4993 17.8719 24.8722 17.727 25.2694C17.582 25.6617 17.1325 25.9281 16.7266 25.8603C16.3206 25.7925 16.1031 25.4196 16.2481 25.0272C16.3931 24.63 16.8426 24.3636 17.2485 24.4314Z" fill="#6F6A76"/>
<path d="M26.294 11.3776C26.642 11.4357 26.8256 11.7554 26.7048 12.0944L23.8583 19.8782C23.7665 20.1252 23.6263 20.3577 23.4427 20.566L18.3634 26.3494C17.885 26.8919 17.1504 27.1728 16.4835 27.0614L13.0909 26.4995C12.9362 26.4753 12.7864 26.4317 12.6414 26.3688L12.3756 26.2573C11.989 26.0927 11.6652 25.802 11.4574 25.4388L10.1719 23.0072C10.2975 23.1574 10.4763 23.264 10.7035 23.2979C11.2592 23.3899 11.873 23.0315 12.0663 22.4938C12.2645 21.9562 11.9697 21.4476 11.4139 21.3555C10.9983 21.2877 10.5585 21.4669 10.2782 21.7818L10.9016 20.0768C11.1771 19.3212 11.7812 18.6528 12.5496 18.2507C13.1827 17.9165 13.6466 17.4031 13.8641 16.8122L16.2273 10.3507C16.3482 10.0165 16.7348 9.78883 17.0827 9.84696L26.294 11.3776ZM16.7734 25.7342C17.1117 25.7924 17.479 25.5695 17.5998 25.2499C17.7207 24.9253 17.5419 24.6202 17.2036 24.5621C16.8653 24.5039 16.498 24.7219 16.3772 25.0464C16.2563 25.3661 16.4351 25.6761 16.7734 25.7342Z" fill="#C6BECD"/>
<path d="M26.4773 12.0074C26.5111 11.9105 26.5063 11.8185 26.4676 11.7459C26.429 11.678 26.3516 11.6296 26.255 11.6151L17.0486 10.0893C17.0244 10.0845 17.0002 10.0845 16.9761 10.0845C16.7538 10.0845 16.5314 10.2395 16.459 10.4381L15.4537 13.1893L13.6849 18.0233C13.5641 18.3575 13.7719 18.7256 14.1247 18.7886L22.7271 20.3095C23.1088 20.3773 23.4955 20.169 23.6308 19.8009C23.6308 19.7961 23.6308 19.7961 23.6356 19.7912L26.4773 12.0074Z" fill="#DBDCDD"/>
<path d="M13.1211 26.5337C13.1743 26.524 13.2274 26.5047 13.2709 26.4804L14.5516 25.8072C15.2717 25.3955 15.4505 24.4364 14.9334 23.7825C14.7321 23.5292 14.4467 23.3567 14.1293 23.2962C13.8118 23.2358 13.4833 23.2915 13.2033 23.4531L11.2412 24.5091C11.1059 24.5817 10.956 24.6205 10.8062 24.6205L10.2456 24.6253C10.1635 24.6253 10.0861 24.6495 10.0185 24.6883L8.72813 25.4536C8.43846 25.6255 8.22215 25.8984 8.12052 26.22C8.01889 26.5417 8.03907 26.8896 8.17719 27.1973C8.25617 27.3724 8.37127 27.5288 8.5149 27.6562C8.65854 27.7835 8.82745 27.8789 9.01053 27.9361C9.1936 27.9933 9.38669 28.011 9.57708 27.988C9.76747 27.965 9.95085 27.9019 10.1151 27.8028L11.7873 26.7904L13.1211 26.5337Z" fill="#958D9C"/>
<path d="M35.6361 22.9012C35.6506 22.5767 35.5733 22.2715 35.4138 22.0148L34.945 21.2495C35.1915 21.6467 35.2446 22.1601 35.0513 22.6881C34.6792 23.7053 33.5193 24.3931 32.4609 24.2138C31.9487 24.1267 31.5572 23.8603 31.3301 23.4873L31.7989 24.2526C31.9632 24.519 32.2096 24.7273 32.5238 24.8581C33.8093 24.9307 35.1383 24.1073 35.6361 22.9012Z" fill="#958D9C"/>
<mask id="mask1_1737_1666" style="mask-type:luminance" maskUnits="userSpaceOnUse" x="38" y="7" width="11" height="12">
<path d="M45.325 8.9078L42.1885 7.89062L38.2305 9.92013L39.4097 10.1139C39.574 10.1429 39.7045 10.2204 39.7915 10.3318L39.835 10.4045L40.3956 11.2957C40.4004 11.3006 40.4004 11.3054 40.4052 11.3103C40.4825 11.4507 40.5019 11.6299 40.4342 11.8092L40.0138 13.0637L43.3677 18.5952L46.6057 17.9945L48.2826 14.9188L45.325 8.9078Z" fill="white"/>
</mask>
<g mask="url(#mask1_1737_1666)">
<path d="M42.5685 8.58819C42.9841 8.656 43.3465 8.87881 43.5543 9.24209C43.9651 9.96379 43.6027 10.9567 42.7424 11.4653L38.0691 14.2214C37.639 14.4733 37.1654 14.5604 36.745 14.4878C36.3245 14.4151 35.9669 14.1972 35.7591 13.8339C35.3483 13.1122 35.7108 12.1192 36.571 11.6106L41.2491 8.85459C41.6744 8.60272 42.148 8.51553 42.5685 8.58819Z" fill="#C6BECD"/>
<path d="M46.7094 14.3616C46.7045 14.352 46.6949 14.3374 46.69 14.3277L43.5342 9.20312C43.5391 9.21281 43.5487 9.22734 43.5536 9.23703C43.9643 9.95874 43.6019 10.9517 42.7417 11.4603L38.0684 14.2163L41.2242 19.3409L45.8975 16.5849C46.7577 16.0763 47.1201 15.0834 46.7094 14.3616Z" fill="#7D7683"/>
</g>
<mask id="mask2_1737_1666" style="mask-type:luminance" maskUnits="userSpaceOnUse" x="28" y="33" width="11" height="13">
<path d="M31.887 36.0421C31.7517 36.4103 31.336 36.6524 30.9542 36.5895L28.4219 36.1681L34.545 45.25L38.0536 43.1914V40.9246L32.8777 33.3394L31.887 36.0421Z" fill="white"/>
</mask>
<g mask="url(#mask2_1737_1666)">
<path d="M31.3633 32.4238L34.5239 37.5484C34.5287 37.5581 34.5384 37.5727 34.5432 37.5823L31.3874 32.4577C31.3778 32.448 31.3729 32.4384 31.3633 32.4238Z" fill="#D31B80"/>
<path d="M36.784 41.4866L33.6282 36.362L31.3906 32.458L34.5464 37.5826L36.784 41.4866Z" fill="#6F6A76"/>
<path d="M30.403 31.8083C30.8186 31.8762 31.1811 32.099 31.3889 32.4622L33.6264 36.3662C34.0372 37.088 33.6748 38.0809 32.8145 38.5895C32.3844 38.8414 31.9108 38.9286 31.4904 38.8607C31.0747 38.7929 30.7123 38.5701 30.5045 38.2068L28.2669 34.3028C27.8561 33.5811 28.2186 32.5882 29.0788 32.0796C29.5089 31.8229 29.9825 31.7405 30.403 31.8083Z" fill="#C6BECD"/>
<path d="M33.6831 43.3604L30.5273 38.2358C30.7352 38.5749 31.0879 38.788 31.4939 38.8509C31.9095 38.9188 32.3831 38.8364 32.8181 38.5797C33.6783 38.0711 34.0456 37.0782 33.63 36.3564L36.7858 41.4811C37.1966 42.2028 36.8341 43.1957 35.9739 43.7043C35.5438 43.9562 35.0702 44.0434 34.6497 43.9756C34.2437 43.9126 33.891 43.6995 33.6831 43.3604Z" fill="#958D9C"/>
</g>
<mask id="mask3_1737_1666" style="mask-type:luminance" maskUnits="userSpaceOnUse" x="0" y="29" width="12" height="12">
<path d="M6.21392 32.1673C5.99644 32.1334 5.83696 32.0026 5.7693 31.8282L5.24253 30.9467C5.1777 30.8817 5.1296 30.8019 5.10238 30.7142C5.06855 30.5979 5.07338 30.4623 5.12171 30.3267L5.54216 29.1787L0.371094 31.8912L5.80797 40.634L11.8344 37.9409L8.3645 32.5209L6.21392 32.1673Z" fill="white"/>
</mask>
<g mask="url(#mask3_1737_1666)">
<path d="M9.3234 31.1548L4.65011 33.9108C4.21999 34.1627 3.74638 34.2499 3.32593 34.1772C2.91998 34.1094 2.57202 33.9012 2.35938 33.5621L5.51518 38.6867C5.72299 39.0258 6.07578 39.2389 6.48173 39.3019C6.89735 39.3697 7.37096 39.2873 7.80591 39.0355L12.4792 36.2794L9.3234 31.1548Z" fill="#6F6A76"/>
<path d="M9.1544 28.2825C9.57002 28.3503 9.93248 28.5731 10.1403 28.9364C10.5511 29.6581 10.1886 30.6511 9.32838 31.1597L4.65509 33.9157C4.22497 34.1676 3.75136 34.2548 3.33091 34.1821C2.91529 34.1143 2.55283 33.8915 2.34502 33.5282C1.93424 32.8065 2.29669 31.8136 3.15693 31.305L7.83505 28.5489C8.26034 28.297 8.73395 28.2147 9.1544 28.2825Z" fill="#C6BECD"/>
</g>
<path d="M17.1569 10.2689C17.3696 10.3028 17.4807 10.4965 17.4034 10.7C17.3261 10.9034 17.099 11.039 16.8863 11.0051C16.6737 10.9712 16.5625 10.7775 16.6398 10.574C16.7123 10.3706 16.9443 10.235 17.1569 10.2689Z" fill="#C60294"/>
<path d="M16.7702 11.3248C16.9829 11.3587 17.094 11.5525 17.0167 11.7559C16.9442 11.9593 16.7122 12.0949 16.4996 12.061C16.2869 12.0271 16.1758 11.8334 16.2531 11.6299C16.3256 11.4265 16.5576 11.286 16.7702 11.3248Z" fill="#C60294"/>
<path d="M18.4377 11.1409C18.6375 11.0172 18.7165 10.7822 18.6141 10.6161C18.5117 10.4499 18.2668 10.4155 18.0669 10.5392C17.8671 10.6629 17.7881 10.8979 17.8905 11.064C17.9928 11.2302 18.2378 11.2646 18.4377 11.1409Z" fill="#C60294"/>
<path d="M16.3835 12.3758C16.5961 12.4097 16.7073 12.6035 16.63 12.8069C16.5575 13.0103 16.3255 13.1459 16.1129 13.112C15.9002 13.0781 15.7891 12.8844 15.8664 12.681C15.9389 12.4775 16.1709 12.3419 16.3835 12.3758Z" fill="#C60294"/>
<path d="M18.0026 11.5281C18.2153 11.562 18.3264 11.7558 18.2491 11.9592C18.1766 12.1627 17.9398 12.2983 17.732 12.2644C17.5194 12.2305 17.4082 12.0367 17.4855 11.8333C17.558 11.6299 17.79 11.4942 18.0026 11.5281Z" fill="#C60294"/>
<path d="M19.6701 11.345C19.8699 11.2213 19.9489 10.9863 19.8466 10.8202C19.7442 10.654 19.4992 10.6196 19.2993 10.7433C19.0995 10.867 19.0205 11.102 19.1229 11.2681C19.2253 11.4343 19.4703 11.4687 19.6701 11.345Z" fill="#C60294"/>
<path d="M15.9968 13.432C16.2094 13.4659 16.3206 13.6596 16.2433 13.863C16.1708 14.0665 15.9388 14.2021 15.7262 14.1682C15.5135 14.1343 15.4024 13.9405 15.4797 13.7371C15.557 13.5337 15.7841 13.398 15.9968 13.432Z" fill="#C60294"/>
<path d="M17.6662 13.2537C17.866 13.13 17.945 12.895 17.8426 12.7289C17.7403 12.5627 17.4953 12.5283 17.2954 12.652C17.0956 12.7757 17.0166 13.0107 17.119 13.1768C17.2214 13.343 17.4664 13.3774 17.6662 13.2537Z" fill="#C60294"/>
<path d="M19.2351 11.7318C19.4477 11.7657 19.5589 11.9594 19.4815 12.1628C19.409 12.3663 19.1771 12.5019 18.9644 12.468C18.7518 12.4341 18.6406 12.2403 18.718 12.0369C18.7905 11.8335 19.0224 11.6978 19.2351 11.7318Z" fill="#C60294"/>
<path d="M20.8542 10.8792C21.0669 10.9131 21.178 11.1069 21.1007 11.3103C21.0234 11.5137 20.7962 11.6494 20.5836 11.6155C20.3709 11.5816 20.2598 11.3878 20.3371 11.1844C20.4096 10.9809 20.6416 10.8453 20.8542 10.8792Z" fill="#C60294"/>
<path d="M15.6159 14.4876C15.8286 14.5215 15.9397 14.7153 15.8624 14.9187C15.7899 15.1221 15.5579 15.2578 15.3453 15.2239C15.1326 15.1899 15.0215 14.9962 15.0988 14.7928C15.1713 14.5893 15.4033 14.4537 15.6159 14.4876Z" fill="#C60294"/>
<path d="M17.2292 13.6351C17.4419 13.669 17.553 13.8627 17.4757 14.0662C17.4032 14.2696 17.1712 14.4052 16.9586 14.3713C16.7459 14.3374 16.6348 14.1437 16.7121 13.9402C16.7846 13.7368 17.0166 13.6012 17.2292 13.6351Z" fill="#C60294"/>
<path d="M18.8967 13.4568C19.0965 13.3331 19.1755 13.0981 19.0731 12.932C18.9707 12.7658 18.7257 12.7314 18.5259 12.8551C18.3261 12.9788 18.2471 13.2138 18.3494 13.3799C18.4518 13.5461 18.6968 13.5805 18.8967 13.4568Z" fill="#C60294"/>
<path d="M20.4675 11.9349C20.6801 11.9688 20.7913 12.1625 20.714 12.366C20.6415 12.5694 20.4095 12.705 20.1969 12.6711C19.9842 12.6372 19.8731 12.4435 19.9504 12.24C20.0229 12.0366 20.2548 11.901 20.4675 11.9349Z" fill="#C60294"/>
<path d="M22.1349 11.7556C22.3348 11.6319 22.4138 11.397 22.3114 11.2308C22.209 11.0647 21.964 11.0303 21.7642 11.154C21.5643 11.2777 21.4853 11.5126 21.5877 11.6788C21.6901 11.8449 21.9351 11.8793 22.1349 11.7556Z" fill="#C60294"/>
<path d="M15.2292 15.5435C15.4418 15.5775 15.553 15.7712 15.4757 15.9746C15.4032 16.1781 15.1712 16.3137 14.9586 16.2798C14.7459 16.2459 14.6348 16.0521 14.7121 15.8487C14.7846 15.6453 15.0166 15.5048 15.2292 15.5435Z" fill="#C60294"/>
<path d="M16.8928 15.3616C17.0926 15.2379 17.1716 15.0029 17.0692 14.8368C16.9668 14.6706 16.7218 14.6362 16.522 14.7599C16.3222 14.8836 16.2432 15.1186 16.3455 15.2847C16.4479 15.4509 16.6929 15.4853 16.8928 15.3616Z" fill="#C60294"/>
<path d="M18.4616 13.8435C18.6743 13.8774 18.7854 14.0712 18.7081 14.2746C18.6356 14.478 18.4036 14.6137 18.191 14.5798C17.9784 14.5459 17.8672 14.3521 17.9445 14.1487C18.017 13.9404 18.249 13.8048 18.4616 13.8435Z" fill="#C60294"/>
<path d="M20.0808 12.9905C20.2934 13.0244 20.4046 13.2182 20.3272 13.4216C20.2548 13.6251 20.0228 13.7607 19.8101 13.7268C19.5975 13.6929 19.4863 13.4991 19.5637 13.2957C19.6362 13.0923 19.8681 12.9566 20.0808 12.9905Z" fill="#C60294"/>
<path d="M21.6999 12.1385C21.9126 12.1724 22.0237 12.3661 21.9464 12.5696C21.8739 12.773 21.6371 12.9086 21.4293 12.8747C21.2166 12.8408 21.1055 12.6471 21.1828 12.4436C21.2553 12.2402 21.4873 12.1046 21.6999 12.1385Z" fill="#C60294"/>
<path d="M23.3635 11.9617C23.5633 11.838 23.6423 11.603 23.5399 11.4369C23.4375 11.2707 23.1925 11.2363 22.9927 11.36C22.7929 11.4837 22.7139 11.7187 22.8162 11.8848C22.9186 12.051 23.1636 12.0854 23.3635 11.9617Z" fill="#C60294"/>
<path d="M14.8425 16.5945C15.0551 16.6285 15.1663 16.8222 15.089 17.0256C15.0165 17.2291 14.7845 17.3647 14.5719 17.3308C14.3592 17.2969 14.2481 17.1031 14.3254 16.8997C14.3979 16.6963 14.6298 16.5606 14.8425 16.5945Z" fill="#C60294"/>
<path d="M16.5099 16.4158C16.7098 16.2921 16.7888 16.0571 16.6864 15.891C16.584 15.7248 16.339 15.6904 16.1392 15.8141C15.9393 15.9378 15.8603 16.1728 15.9627 16.3389C16.0651 16.5051 16.3101 16.5395 16.5099 16.4158Z" fill="#C60294"/>
<path d="M18.1232 15.5652C18.3231 15.4415 18.4021 15.2065 18.2997 15.0404C18.1973 14.8742 17.9523 14.8398 17.7525 14.9635C17.5526 15.0872 17.4736 15.3222 17.576 15.4883C17.6784 15.6545 17.9234 15.6889 18.1232 15.5652Z" fill="#C60294"/>
<path d="M19.6941 14.0467C19.9067 14.0806 20.0178 14.2744 19.9405 14.4778C19.868 14.6812 19.6361 14.8168 19.4234 14.7829C19.2108 14.749 19.0996 14.5553 19.1769 14.3518C19.2494 14.1484 19.4814 14.0128 19.6941 14.0467Z" fill="#C60294"/>
<path d="M21.3615 13.8635C21.5613 13.7398 21.6403 13.5049 21.538 13.3387C21.4356 13.1726 21.1906 13.1382 20.9907 13.2619C20.7909 13.3856 20.7119 13.6205 20.8143 13.7867C20.9167 13.9528 21.1617 13.9872 21.3615 13.8635Z" fill="#C60294"/>
<path d="M22.9323 12.3468C23.145 12.3807 23.2561 12.5744 23.1788 12.7779C23.1063 12.9813 22.8743 13.1169 22.6617 13.083C22.4491 13.0491 22.3379 12.8554 22.4152 12.6519C22.4877 12.4485 22.7197 12.308 22.9323 12.3468Z" fill="#C60294"/>
<path d="M14.4558 17.6507C14.6684 17.6846 14.7796 17.8784 14.7022 18.0818C14.6298 18.2852 14.3978 18.4208 14.1851 18.3869C13.9725 18.353 13.8613 18.1593 13.9387 17.9559C14.0112 17.7524 14.2431 17.6168 14.4558 17.6507Z" fill="#C60294"/>
<path d="M24.5959 12.1648C24.7957 12.0411 24.8747 11.8061 24.7723 11.64C24.67 11.4738 24.425 11.4394 24.2251 11.5631C24.0253 11.6868 23.9463 11.9218 24.0487 12.0879C24.151 12.2541 24.396 12.2885 24.5959 12.1648Z" fill="#C60294"/>
<path d="M16.1232 17.4714C16.3231 17.3477 16.4021 17.1128 16.2997 16.9466C16.1973 16.7805 15.9523 16.7461 15.7525 16.8698C15.5526 16.9935 15.4736 17.2284 15.576 17.3946C15.6784 17.5607 15.9234 17.5951 16.1232 17.4714Z" fill="#C60294"/>
<path d="M17.7385 16.6213C17.9383 16.4976 18.0173 16.2627 17.9149 16.0965C17.8125 15.9304 17.5675 15.896 17.3677 16.0197C17.1679 16.1434 17.0889 16.3783 17.1912 16.5445C17.2936 16.7106 17.5386 16.745 17.7385 16.6213Z" fill="#C60294"/>
<path d="M19.3073 15.098C19.52 15.1319 19.6311 15.3256 19.5538 15.5291C19.4813 15.7325 19.2493 15.8681 19.0367 15.8342C18.8241 15.8003 18.7129 15.6066 18.7902 15.4031C18.8627 15.1997 19.0947 15.0641 19.3073 15.098Z" fill="#C60294"/>
<path d="M20.9265 14.2503C21.1391 14.2842 21.2503 14.478 21.1729 14.6814C21.1005 14.8848 20.8685 15.0205 20.6558 14.9865C20.4432 14.9526 20.332 14.7589 20.4094 14.5555C20.4819 14.352 20.7138 14.2164 20.9265 14.2503Z" fill="#C60294"/>
<path d="M22.5959 14.0711C22.7957 13.9474 22.8747 13.7124 22.7723 13.5462C22.67 13.3801 22.425 13.3457 22.2251 13.4694C22.0253 13.5931 21.9463 13.828 22.0487 13.9942C22.151 14.1603 22.396 14.1948 22.5959 14.0711Z" fill="#C60294"/>
<path d="M24.1589 12.5501C24.3715 12.584 24.4827 12.7778 24.4054 12.9812C24.3329 13.1846 24.1009 13.3203 23.8883 13.2864C23.6756 13.2524 23.5645 13.0587 23.6418 12.8553C23.7191 12.6518 23.9511 12.5162 24.1589 12.5501Z" fill="#C60294"/>
<path d="M15.7365 18.5232C15.9363 18.3995 16.0153 18.1645 15.913 17.9984C15.8106 17.8322 15.5656 17.7978 15.3657 17.9215C15.1659 18.0452 15.0869 18.2802 15.1893 18.4463C15.2917 18.6125 15.5367 18.6469 15.7365 18.5232Z" fill="#C60294"/>
<path d="M25.8264 12.3684C26.0262 12.2447 26.1052 12.0097 26.0028 11.8436C25.9004 11.6775 25.6554 11.643 25.4556 11.7667C25.2557 11.8904 25.1767 12.1254 25.2791 12.2916C25.3815 12.4577 25.6265 12.4921 25.8264 12.3684Z" fill="#C60294"/>
<path d="M17.3556 17.6746C17.5555 17.5509 17.6345 17.3159 17.5321 17.1498C17.4297 16.9836 17.1847 16.9492 16.9849 17.0729C16.785 17.1966 16.706 17.4316 16.8084 17.5977C16.9108 17.7639 17.1558 17.7983 17.3556 17.6746Z" fill="#C60294"/>
<path d="M18.9206 16.1536C19.1333 16.1875 19.2444 16.3813 19.1671 16.5847C19.0946 16.7882 18.8626 16.9238 18.65 16.8899C18.4373 16.856 18.3262 16.6622 18.4035 16.4588C18.4808 16.2553 18.7128 16.1197 18.9206 16.1536Z" fill="#C60294"/>
<path d="M20.59 15.9758C20.7899 15.8521 20.8689 15.6172 20.7665 15.451C20.6641 15.2849 20.4191 15.2505 20.2193 15.3742C20.0194 15.4979 19.9404 15.7328 20.0428 15.899C20.1452 16.0651 20.3902 16.0995 20.59 15.9758Z" fill="#C60294"/>
<path d="M22.1589 14.4534C22.3715 14.4873 22.4827 14.6811 22.4054 14.8845C22.3329 15.088 22.1009 15.2236 21.8883 15.1897C21.6756 15.1558 21.5645 14.962 21.6418 14.7586C21.7143 14.5552 21.9463 14.4195 22.1589 14.4534Z" fill="#C60294"/>
<path d="M23.8264 14.2752C24.0262 14.1515 24.1052 13.9165 24.0028 13.7503C23.9004 13.5842 23.6554 13.5498 23.4556 13.6735C23.2557 13.7972 23.1767 14.0321 23.2791 14.1983C23.3815 14.3644 23.6265 14.3989 23.8264 14.2752Z" fill="#C60294"/>
<path d="M25.3913 12.7532C25.604 12.7871 25.7151 12.9809 25.6378 13.1843C25.5653 13.3878 25.3285 13.5234 25.1207 13.4895C24.908 13.4556 24.7969 13.2618 24.8742 13.0584C24.9515 12.855 25.1835 12.7193 25.3913 12.7532Z" fill="#C60294"/>
<path d="M16.9709 18.7307C17.1707 18.607 17.2497 18.3721 17.1473 18.2059C17.045 18.0398 16.8 18.0053 16.6001 18.129C16.4003 18.2527 16.3213 18.4877 16.4237 18.6539C16.526 18.82 16.771 18.8544 16.9709 18.7307Z" fill="#C60294"/>
<path d="M18.5339 17.2098C18.7465 17.2437 18.8577 17.4374 18.7804 17.6409C18.7079 17.8443 18.4759 17.9799 18.2633 17.946C18.0506 17.9121 17.9395 17.7184 18.0168 17.5149C18.0941 17.3115 18.3261 17.1759 18.5339 17.2098Z" fill="#C60294"/>
<path d="M20.2033 17.0325C20.4031 16.9088 20.4821 16.6738 20.3798 16.5077C20.2774 16.3415 20.0324 16.3071 19.8325 16.4308C19.6327 16.5545 19.5537 16.7895 19.6561 16.9556C19.7585 17.1218 20.0035 17.1562 20.2033 17.0325Z" fill="#C60294"/>
<path d="M21.8224 16.1795C22.0223 16.0558 22.1013 15.8208 21.9989 15.6546C21.8965 15.4885 21.6515 15.4541 21.4517 15.5778C21.2518 15.7015 21.1728 15.9364 21.2752 16.1026C21.3776 16.2687 21.6226 16.3032 21.8224 16.1795Z" fill="#C60294"/>
<path d="M23.3913 14.657C23.604 14.691 23.7151 14.8847 23.6378 15.0881C23.5653 15.2916 23.3333 15.4272 23.1207 15.3933C22.908 15.3594 22.7969 15.1656 22.8742 14.9622C22.9467 14.7588 23.1787 14.6231 23.3913 14.657Z" fill="#C60294"/>
<path d="M25.0607 14.4783C25.2606 14.3546 25.3396 14.1196 25.2372 13.9535C25.1348 13.7873 24.8898 13.7529 24.69 13.8766C24.4901 14.0003 24.4111 14.2353 24.5135 14.4014C24.6159 14.5676 24.8609 14.602 25.0607 14.4783Z" fill="#C60294"/>
<path d="M18.1511 18.2657C18.3637 18.2996 18.4749 18.4934 18.3976 18.6968C18.3251 18.9002 18.0931 19.0359 17.8804 19.002C17.6678 18.968 17.5567 18.7743 17.634 18.5709C17.7065 18.3674 17.9384 18.227 18.1511 18.2657Z" fill="#C60294"/>
<path d="M19.8205 18.0818C20.0203 17.9581 20.0993 17.7231 19.9969 17.557C19.8946 17.3908 19.6496 17.3564 19.4497 17.4801C19.2499 17.6038 19.1709 17.8388 19.2733 18.0049C19.3757 18.1711 19.6207 18.2055 19.8205 18.0818Z" fill="#C60294"/>
<path d="M21.4357 17.2361C21.6356 17.1124 21.7146 16.8774 21.6122 16.7113C21.5098 16.5451 21.2648 16.5107 21.065 16.6344C20.8651 16.7581 20.7861 16.9931 20.8885 17.1592C20.9909 17.3254 21.2359 17.3598 21.4357 17.2361Z" fill="#C60294"/>
<path d="M23.0529 16.3826C23.2528 16.2589 23.3318 16.0239 23.2294 15.8578C23.127 15.6916 22.882 15.6572 22.6821 15.7809C22.4823 15.9046 22.4033 16.1396 22.5057 16.3057C22.6081 16.4719 22.8531 16.5063 23.0529 16.3826Z" fill="#C60294"/>
<path d="M24.6237 14.8653C24.8364 14.8992 24.9475 15.093 24.8702 15.2964C24.7977 15.4998 24.5609 15.6355 24.3531 15.6016C24.1405 15.5677 24.0293 15.3739 24.1066 15.1705C24.1791 14.967 24.4111 14.8266 24.6237 14.8653Z" fill="#C60294"/>
<path d="M19.4338 19.1379C19.6336 19.0142 19.7126 18.7793 19.6102 18.6131C19.5078 18.447 19.2628 18.4126 19.063 18.5363C18.8632 18.66 18.7842 18.8949 18.8866 19.0611C18.9889 19.2272 19.2339 19.2616 19.4338 19.1379Z" fill="#C60294"/>
<path d="M21.049 18.2913C21.2488 18.1676 21.3278 17.9326 21.2255 17.7665C21.1231 17.6003 20.8781 17.5659 20.6782 17.6896C20.4784 17.8133 20.3994 18.0483 20.5018 18.2144C20.6042 18.3806 20.8492 18.415 21.049 18.2913Z" fill="#C60294"/>
<path d="M22.6662 17.4387C22.866 17.315 22.945 17.0801 22.8426 16.9139C22.7403 16.7478 22.4953 16.7134 22.2954 16.8371C22.0956 16.9608 22.0166 17.1957 22.119 17.3619C22.2214 17.528 22.4664 17.5624 22.6662 17.4387Z" fill="#C60294"/>
<path d="M24.2853 16.5862C24.4852 16.4625 24.5642 16.2275 24.4618 16.0614C24.3594 15.8952 24.1144 15.8608 23.9146 15.9845C23.7147 16.1082 23.6357 16.3432 23.7381 16.5093C23.8405 16.6755 24.0855 16.7099 24.2853 16.5862Z" fill="#C60294"/>
<path d="M20.6662 19.3411C20.866 19.2174 20.945 18.9824 20.8426 18.8163C20.7403 18.6501 20.4953 18.6157 20.2954 18.7394C20.0956 18.8631 20.0166 19.0981 20.119 19.2642C20.2214 19.4304 20.4664 19.4648 20.6662 19.3411Z" fill="#C60294"/>
<path d="M22.2814 18.4949C22.4813 18.3712 22.5603 18.1362 22.4579 17.9701C22.3555 17.8039 22.1105 17.7695 21.9107 17.8932C21.7108 18.0169 21.6318 18.2519 21.7342 18.418C21.8366 18.5842 22.0816 18.6186 22.2814 18.4949Z" fill="#C60294"/>
<path d="M23.9006 17.6423C24.1004 17.5186 24.1794 17.2837 24.077 17.1175C23.9746 16.9514 23.7296 16.917 23.5298 17.0407C23.33 17.1644 23.251 17.3993 23.3534 17.5655C23.4557 17.7316 23.7007 17.766 23.9006 17.6423Z" fill="#C60294"/>
<path d="M21.8928 19.5466C22.0926 19.4229 22.1716 19.188 22.0692 19.0218C21.9668 18.8557 21.7218 18.8213 21.522 18.945C21.3222 19.0687 21.2432 19.3036 21.3455 19.4698C21.4479 19.6359 21.6929 19.6703 21.8928 19.5466Z" fill="#C60294"/>
<path d="M23.5139 18.6985C23.7137 18.5748 23.7927 18.3398 23.6903 18.1737C23.5879 18.0075 23.3429 17.9731 23.1431 18.0968C22.9432 18.2205 22.8642 18.4555 22.9666 18.6216C23.069 18.7878 23.314 18.8222 23.5139 18.6985Z" fill="#C60294"/>
<path d="M23.1271 19.7547C23.327 19.631 23.406 19.396 23.3036 19.2298C23.2012 19.0637 22.9562 19.0293 22.7564 19.153C22.5565 19.2767 22.4775 19.5116 22.5799 19.6778C22.6823 19.8439 22.9273 19.8784 23.1271 19.7547Z" fill="#C60294"/>
<path d="M14.9088 24.8236C14.9378 24.6706 14.9325 24.5131 14.8932 24.3625C14.854 24.2119 14.7817 24.0719 14.6818 23.9527C14.5819 23.8336 14.4567 23.7382 14.3154 23.6735C14.1741 23.6088 14.0203 23.5764 13.865 23.5787C13.6861 23.5787 13.5122 23.6272 13.3479 23.724L11.3857 24.78C11.3181 24.8139 11.2504 24.8381 11.1779 24.8575C10.9556 24.9204 10.8541 25.182 10.9653 25.3854C10.9943 25.4387 11.0136 25.4726 11.0281 25.492C11.0716 25.5598 11.2746 26.0442 11.782 26.3735C11.8642 26.4268 11.9608 26.4462 12.0527 26.4268L13.0676 26.2331C13.0917 26.2282 13.1159 26.2185 13.1352 26.2088L14.4062 25.5356C14.6672 25.3854 14.8508 25.1239 14.9088 24.8236Z" fill="#6F6A76"/>
<path d="M10.676 23.9517L9.94141 22.5712L10.5503 21.0455L12.6478 20.813L12.5656 22.7408L11.2946 23.7337L10.676 23.9517Z" fill="#C6BECD"/>
<path d="M11.6482 21.7822L11.9527 22.2666C12.0445 22.4119 12.0638 22.6057 11.9913 22.7994C11.8512 23.1772 11.4211 23.4339 11.0296 23.3661C10.9136 23.3467 10.817 23.3031 10.7396 23.2402C10.6865 23.2014 10.643 23.153 10.6092 23.0949L10.3047 22.6105C10.3385 22.6638 10.382 22.7122 10.4352 22.7558C10.5125 22.8188 10.614 22.8624 10.7251 22.8817C11.1166 22.9447 11.5467 22.6928 11.6869 22.315C11.7594 22.1213 11.74 21.9324 11.6482 21.7822Z" fill="#8A1838"/>
<path d="M10.1477 22.8282C10.2588 22.9154 10.3942 22.9735 10.5536 23.0025C11.0997 23.0946 11.6942 22.741 11.8875 22.2179C12.0808 21.6948 11.7957 21.1959 11.2496 21.1038C10.8823 21.0409 10.4956 21.1813 10.2202 21.438C10.0857 21.5629 9.9815 21.717 9.91571 21.8885C9.88671 21.9757 9.86738 22.058 9.85771 22.1404C9.83838 22.4165 9.9447 22.6683 10.1477 22.8282Z" fill="#E41E37"/>
<path d="M10.3193 26.6547C10.1743 27.047 9.72483 27.3134 9.31888 27.2456C8.90809 27.1778 8.69545 26.8 8.84043 26.4076C8.98542 26.0153 9.43486 25.7489 9.84082 25.8167C10.2468 25.8894 10.4594 26.2623 10.3193 26.6547Z" fill="#C6BECD"/>
<path d="M13.2766 36.8219L9.61334 36.2116L8.29883 34.0513L11.9669 34.6616L13.2766 36.8219Z" fill="#6F6A76"/>
<path d="M17.4074 37.5045L13.7394 36.899L12.4297 34.7388L16.0929 35.3442L17.4074 37.5045Z" fill="#6F6A76"/>
<path d="M21.5346 38.1922L17.8665 37.5819L16.5762 35.4556L20.2394 36.0659L21.5346 38.1922Z" fill="#6F6A76"/>
<path d="M8.29508 34.0503L11.9632 34.6606L10.6438 38.6179L6.99023 38.0366L8.29508 34.0503Z" fill="#C6BECE"/>
<path d="M6.99023 38.0366L7.52184 38.9085L11.3494 39.4558L10.6438 38.6179L6.99023 38.0366Z" fill="#968F9E"/>
<path d="M11.9678 34.6606L12.5622 35.6391L11.354 39.4559L10.6484 38.6179L11.9678 34.6606Z" fill="#6E6975"/>
<path d="M17.2834 62.5703C14.7945 62.5703 12.6633 61.9116 10.9477 60.6086C9.02904 59.1555 7.74353 56.9904 7.12493 54.1762C6.53533 51.488 6.57399 48.3154 7.25058 44.7504C7.34241 44.2661 7.44873 43.7623 7.56471 43.2586C7.88851 41.8684 8.29929 40.4347 8.79707 38.9864C8.85506 38.8121 8.89856 38.7588 9.03871 38.7588C9.16919 38.7588 9.28035 38.8072 9.34317 38.8896C9.377 38.9332 9.38667 38.9816 9.37217 39.0252C8.68592 41.0111 8.14465 43.0261 7.79669 44.8473V44.8521C7.1346 48.3444 7.0911 51.4396 7.6662 54.0551C8.2558 56.7337 9.47366 58.7923 11.2811 60.163C12.9001 61.3885 14.9202 62.0133 17.2883 62.0133C17.5637 62.0133 17.8489 62.0036 18.1292 61.9891C19.5307 61.9067 21.0337 61.6161 22.5898 61.1318C22.8314 61.248 23.0827 61.3643 23.3292 61.4757C21.5169 62.086 19.7771 62.4492 18.1582 62.5413C17.8634 62.5606 17.5686 62.5703 17.2834 62.5703Z" fill="#E8E8E4"/>
<path d="M9.03791 38.9284C9.13456 38.9284 9.18772 38.9672 9.20222 38.9914C8.51597 40.9821 7.97469 42.9971 7.62673 44.8183V44.8232C6.95981 48.3348 6.92115 51.4542 7.49625 54.094C8.09551 56.8161 9.33271 58.9038 11.174 60.2987C12.822 61.5484 14.8759 62.1829 17.2826 62.1829C17.5629 62.1829 17.8481 62.1732 18.138 62.1587C19.5347 62.0764 21.028 61.7906 22.5745 61.3159C22.6712 61.3595 22.7678 61.4079 22.8645 61.4515C21.2165 61.9746 19.6313 62.2895 18.1525 62.3767C17.8577 62.396 17.5678 62.4009 17.2826 62.4009C14.8324 62.4009 12.735 61.7518 11.0483 60.4731C9.16356 59.0442 7.89737 56.913 7.28844 54.1424C6.70367 51.4735 6.74717 48.3252 7.41409 44.7844C7.50592 44.3001 7.61224 43.8012 7.72822 43.2974C8.04719 41.917 8.4628 40.4832 8.95575 39.0447C8.97508 38.9865 8.98958 38.9478 9.00408 38.9333C9.00891 38.9333 9.01857 38.9284 9.03791 38.9284ZM9.03791 38.5894C8.7721 38.5894 8.69478 38.7637 8.63679 38.9333C8.13901 40.3864 7.72339 41.8201 7.39959 43.2199C7.28361 43.7237 7.17729 44.2226 7.08063 44.7215C6.40404 48.3058 6.36055 51.5026 6.95498 54.2151C7.58324 57.068 8.88809 59.267 10.8405 60.7444C12.59 62.0715 14.7502 62.7399 17.2778 62.7399C17.5678 62.7399 17.8674 62.7303 18.167 62.7109C19.8923 62.6092 21.7336 62.2168 23.6667 61.5387C23.7102 61.5242 23.715 61.4612 23.6715 61.4418C23.3188 61.2868 22.966 61.127 22.618 60.9623C22.6132 60.9575 22.6035 60.9575 22.5938 60.9575H22.5793C21.0184 61.4467 19.525 61.7373 18.1139 61.8196C17.8336 61.8342 17.5533 61.8439 17.2826 61.8439C14.9532 61.8439 12.9718 61.2336 11.3818 60.0275C9.60334 58.6809 8.40964 56.6563 7.82971 54.0165C7.25944 51.4203 7.30294 48.3494 7.9602 44.8813V44.8765C8.30816 43.0359 8.85909 41.0257 9.52602 39.0786C9.60334 38.8654 9.3907 38.5894 9.03791 38.5894Z" fill="#335E6F"/>
</g>
<defs>
<clipPath id="clip0_1737_1666">
<rect width="66.9296" height="66" fill="white"/>
</clipPath>
</defs>
</svg>
